<mxfile host="Electron" agent="Mozilla/5.0 (Windows NT 10.0; Win64; x64) AppleWebKit/537.36 (KHTML, like Gecko) draw.io/28.0.6 Chrome/138.0.7204.100 Electron/37.2.3 Safari/537.36" version="28.0.6">
  <diagram name="Página-1" id="K04C1CCQ7KW78PK_lDg6">
    <mxGraphModel dx="1678" dy="989" grid="0" gridSize="10" guides="1" tooltips="1" connect="1" arrows="1" fold="1" page="1" pageScale="1" pageWidth="827" pageHeight="1169" math="0" shadow="0">
      <root>
        <mxCell id="0" />
        <mxCell id="1" parent="0" />
        <mxCell id="vTJqPr9lZagYhx2V6duI-1" value="Agregar pruebas diagnósticas Blackboard" style="shape=table;startSize=34;container=1;collapsible=0;childLayout=tableLayout;fixedRows=1;rowLines=0;fontStyle=0;fontSize=15;fontFamily=Times New Roman;" vertex="1" parent="1">
          <mxGeometry x="30" y="30" width="363" height="112" as="geometry" />
        </mxCell>
        <mxCell id="vTJqPr9lZagYhx2V6duI-2" value="" style="shape=tableRow;horizontal=0;startSize=0;swimlaneHead=0;swimlaneBody=0;top=0;left=0;bottom=0;right=0;collapsible=0;dropTarget=0;fillColor=none;points=[[0,0.5],[1,0.5]];portConstraint=eastwest;strokeColor=inherit;fontSize=16;fontFamily=Times New Roman;" vertex="1" parent="vTJqPr9lZagYhx2V6duI-1">
          <mxGeometry y="34" width="363" height="27" as="geometry" />
        </mxCell>
        <mxCell id="vTJqPr9lZagYhx2V6duI-3" value="&lt;font style=&quot;font-size: 14px;&quot;&gt;Detalle&lt;/font&gt;&lt;div&gt;&lt;br&gt;&lt;/div&gt;" style="shape=partialRectangle;html=1;whiteSpace=wrap;connectable=0;fillColor=none;top=0;left=0;bottom=0;right=0;overflow=hidden;pointerEvents=1;strokeColor=inherit;fontSize=16;fontFamily=Times New Roman;" vertex="1" parent="vTJqPr9lZagYhx2V6duI-2">
          <mxGeometry width="65" height="27" as="geometry">
            <mxRectangle width="65" height="27" as="alternateBounds" />
          </mxGeometry>
        </mxCell>
        <mxCell id="vTJqPr9lZagYhx2V6duI-4" value="&lt;font style=&quot;font-size: 15px;&quot;&gt;Ciclo 01-2025&lt;/font&gt;" style="shape=partialRectangle;html=1;whiteSpace=wrap;connectable=0;fillColor=none;top=0;left=0;bottom=0;right=0;align=left;spacingLeft=6;overflow=hidden;strokeColor=inherit;fontSize=16;fontFamily=Times New Roman;" vertex="1" parent="vTJqPr9lZagYhx2V6duI-2">
          <mxGeometry x="65" width="298" height="27" as="geometry">
            <mxRectangle width="298" height="27" as="alternateBounds" />
          </mxGeometry>
        </mxCell>
        <mxCell id="vTJqPr9lZagYhx2V6duI-5" value="" style="shape=tableRow;horizontal=0;startSize=0;swimlaneHead=0;swimlaneBody=0;top=0;left=0;bottom=0;right=0;collapsible=0;dropTarget=0;fillColor=none;points=[[0,0.5],[1,0.5]];portConstraint=eastwest;strokeColor=inherit;fontSize=16;fontFamily=Times New Roman;" vertex="1" parent="vTJqPr9lZagYhx2V6duI-1">
          <mxGeometry y="61" width="363" height="31" as="geometry" />
        </mxCell>
        <mxCell id="vTJqPr9lZagYhx2V6duI-6" value="&lt;font style=&quot;font-size: 14px;&quot;&gt;Encargado&lt;/font&gt;" style="shape=partialRectangle;html=1;whiteSpace=wrap;connectable=0;fillColor=none;top=0;left=0;bottom=0;right=0;overflow=hidden;strokeColor=inherit;fontSize=16;fontFamily=Times New Roman;" vertex="1" parent="vTJqPr9lZagYhx2V6duI-5">
          <mxGeometry width="65" height="31" as="geometry">
            <mxRectangle width="65" height="31" as="alternateBounds" />
          </mxGeometry>
        </mxCell>
        <mxCell id="vTJqPr9lZagYhx2V6duI-7" value="Mauricio Chinchilla y René Cruz" style="shape=partialRectangle;html=1;whiteSpace=wrap;connectable=0;fillColor=none;top=0;left=0;bottom=0;right=0;align=left;spacingLeft=6;overflow=hidden;strokeColor=inherit;fontSize=16;fontFamily=Times New Roman;" vertex="1" parent="vTJqPr9lZagYhx2V6duI-5">
          <mxGeometry x="65" width="298" height="31" as="geometry">
            <mxRectangle width="298" height="31" as="alternateBounds" />
          </mxGeometry>
        </mxCell>
        <mxCell id="vTJqPr9lZagYhx2V6duI-8" value="" style="shape=tableRow;horizontal=0;startSize=0;swimlaneHead=0;swimlaneBody=0;top=0;left=0;bottom=0;right=0;collapsible=0;dropTarget=0;fillColor=none;points=[[0,0.5],[1,0.5]];portConstraint=eastwest;strokeColor=inherit;fontSize=16;fontFamily=Times New Roman;" vertex="1" parent="vTJqPr9lZagYhx2V6duI-1">
          <mxGeometry y="92" width="363" height="20" as="geometry" />
        </mxCell>
        <mxCell id="vTJqPr9lZagYhx2V6duI-9" value="" style="shape=partialRectangle;html=1;whiteSpace=wrap;connectable=0;fillColor=none;top=0;left=0;bottom=0;right=0;overflow=hidden;strokeColor=inherit;fontSize=16;fontFamily=Times New Roman;" vertex="1" parent="vTJqPr9lZagYhx2V6duI-8">
          <mxGeometry width="65" height="20" as="geometry">
            <mxRectangle width="65" height="20" as="alternateBounds" />
          </mxGeometry>
        </mxCell>
        <mxCell id="vTJqPr9lZagYhx2V6duI-10" value="" style="shape=partialRectangle;html=1;whiteSpace=wrap;connectable=0;fillColor=none;top=0;left=0;bottom=0;right=0;align=left;spacingLeft=6;overflow=hidden;strokeColor=inherit;fontSize=16;fontFamily=Times New Roman;" vertex="1" parent="vTJqPr9lZagYhx2V6duI-8">
          <mxGeometry x="65" width="298" height="20" as="geometry">
            <mxRectangle width="298" height="20" as="alternateBounds" />
          </mxGeometry>
        </mxCell>
        <mxCell id="vTJqPr9lZagYhx2V6duI-13" value="" style="edgeStyle=orthogonalEdgeStyle;rounded=0;orthogonalLoop=1;jettySize=auto;html=1;" edge="1" parent="1" source="vTJqPr9lZagYhx2V6duI-11" target="vTJqPr9lZagYhx2V6duI-12">
          <mxGeometry relative="1" as="geometry" />
        </mxCell>
        <mxCell id="vTJqPr9lZagYhx2V6duI-11" value="Importación de pruebas diagósticas en Moodle" style="rounded=0;whiteSpace=wrap;html=1;fillColor=#dae8fc;strokeColor=#6c8ebf;fontFamily=Times New Roman;fontSize=15;" vertex="1" parent="1">
          <mxGeometry x="341" y="211" width="145" height="45" as="geometry" />
        </mxCell>
        <mxCell id="vTJqPr9lZagYhx2V6duI-15" value="" style="edgeStyle=orthogonalEdgeStyle;rounded=0;orthogonalLoop=1;jettySize=auto;html=1;" edge="1" parent="1" source="vTJqPr9lZagYhx2V6duI-12" target="vTJqPr9lZagYhx2V6duI-14">
          <mxGeometry relative="1" as="geometry" />
        </mxCell>
        <mxCell id="vTJqPr9lZagYhx2V6duI-12" value="Ingresar con credenciales administrativas a Blackboard" style="whiteSpace=wrap;html=1;fontSize=15;fontFamily=Times New Roman;rounded=0;" vertex="1" parent="1">
          <mxGeometry x="333" y="299" width="162" height="60" as="geometry" />
        </mxCell>
        <mxCell id="vTJqPr9lZagYhx2V6duI-17" value="" style="edgeStyle=orthogonalEdgeStyle;rounded=0;orthogonalLoop=1;jettySize=auto;html=1;" edge="1" parent="1" source="vTJqPr9lZagYhx2V6duI-14" target="vTJqPr9lZagYhx2V6duI-16">
          <mxGeometry relative="1" as="geometry" />
        </mxCell>
        <mxCell id="vTJqPr9lZagYhx2V6duI-14" value="seguir la siguiente ruta: Administrador/Cursos/Filtrar por el id del curso&quot; STCA, STCC, STCB o STCD&quot;" style="whiteSpace=wrap;html=1;fontSize=15;fontFamily=Times New Roman;rounded=0;" vertex="1" parent="1">
          <mxGeometry x="293" y="395" width="242" height="69" as="geometry" />
        </mxCell>
        <mxCell id="vTJqPr9lZagYhx2V6duI-19" value="" style="edgeStyle=orthogonalEdgeStyle;rounded=0;orthogonalLoop=1;jettySize=auto;html=1;" edge="1" parent="1" source="vTJqPr9lZagYhx2V6duI-16" target="vTJqPr9lZagYhx2V6duI-18">
          <mxGeometry relative="1" as="geometry" />
        </mxCell>
        <mxCell id="vTJqPr9lZagYhx2V6duI-16" value="Ingresar a cada aula y seguir la ruta: 3 puntos/copiar elementos/buscar &quot;STCA-PLANTILLA&quot;/Contenido/Seleccionar la prueba correspondiente/según la facultad/Comenzar copia" style="whiteSpace=wrap;html=1;fontSize=15;fontFamily=Times New Roman;rounded=0;" vertex="1" parent="1">
          <mxGeometry x="260" y="500.5" width="308" height="84" as="geometry" />
        </mxCell>
        <mxCell id="vTJqPr9lZagYhx2V6duI-18" value="Verificar que esté oculto el contenido a los estudiantes" style="whiteSpace=wrap;html=1;fontSize=15;fontFamily=Times New Roman;rounded=0;" vertex="1" parent="1">
          <mxGeometry x="354" y="622" width="120" height="60" as="geometry" />
        </mxCell>
      </root>
    </mxGraphModel>
  </diagram>
</mxfile>
